<svg width="2927" height="434" viewBox="0 0 2927 434" fill="none" xmlns="http://www.w3.org/2000/svg">
<path d="M2377.18 43.7304L2481.88 303.616C2491.81 328.357 2506.83 350.732 2525.97 369.285C2545.45 388.128 2568.7 402.624 2594.2 411.814C2619.69 421.005 2646.85 424.68 2673.87 422.598C2712.41 418.178 2748.68 402.124 2777.87 376.574C2779.95 374.351 2781.88 371.968 2783.73 369.585C2761.55 366.443 2740.58 357.521 2722.94 343.712C2705.29 329.904 2691.59 311.697 2683.21 290.92L2623.62 142.745C2610.48 110.41 2588.74 82.2809 2560.77 61.399C2532.8 40.5172 2499.65 27.6767 2464.91 24.2656C2434.53 23.6532 2404.44 30.3278 2377.18 43.7304Z" fill="url(#paint0_linear_1635_20)"/>
<path d="M2719.5 297.873L2770.28 146.576C2786.44 98.4322 3008.59 69.9335 2866.53 36.0482C2724.47 2.16302 2939.02 -18.2755 2925.46 23.4307C2911.9 65.1369 2834.08 295.778 2834.08 295.778C2823.27 328.055 2804.05 356.862 2778.38 379.221C2752.71 401.58 2721.54 416.679 2688.08 422.957C2661.27 426.934 2633.92 425.177 2607.84 417.802C2581.77 410.427 2557.55 397.602 2536.8 380.175C2558.74 375.655 2648.41 388.383 2683.15 353.047C2717.89 317.711 2712.43 319.134 2719.5 297.873Z" fill="url(#paint1_linear_1635_20)"/>
<path d="M2479.78 156.664L2418.48 304.014C2398.98 350.903 2361.65 388.128 2314.7 407.501C2267.75 426.874 2215.03 426.809 2168.13 407.32L2278.44 142.073C2291.48 110.635 2312.69 83.2512 2339.87 62.7526C2367.04 42.254 2399.2 29.3846 2433.02 25.4749C2460.04 23.3928 2487.2 27.0685 2512.69 36.2589C2538.19 45.4492 2561.44 59.945 2580.92 78.7882C2558.71 81.7542 2537.67 90.512 2519.91 104.182C2502.16 117.851 2488.32 135.952 2479.78 156.664Z" fill="url(#paint2_linear_1635_20)"/>
<path d="M0.828125 433.766V67.5547L26.707 55.3477H119.236C156.346 55.3477 186.456 67.1478 209.568 90.7481C231.541 113.209 242.527 142.099 242.527 177.418C242.527 212.9 231.541 241.79 209.568 264.088C196.548 277.272 181.329 286.793 163.914 292.652L248.387 413.502L205.418 433.766H202.977L108.982 299.488H49.6562V411.793L3.26953 433.766H0.828125ZM49.6562 255.543H119.236C140.558 255.543 159.52 247.161 176.121 230.397C187.84 218.515 193.699 200.856 193.699 177.418C193.699 155.608 187.84 137.949 176.121 124.439C161.635 107.675 142.674 99.293 119.236 99.293H49.6562V255.543Z" fill="url(#paint3_linear_1635_20)"/>
<path d="M512.059 315.846V331.227C512.059 358.082 501.967 381.438 481.785 401.295C462.905 419.687 439.223 428.883 410.74 428.883C382.583 428.883 358.901 419.687 339.695 401.295C319.513 381.764 309.422 358.408 309.422 331.227V248.219C309.422 221.363 319.513 198.007 339.695 178.15C358.576 159.759 382.257 150.563 410.74 150.563C438.41 150.563 462.091 159.759 481.785 178.15C501.967 197.031 512.059 218.027 512.059 241.139V241.627L363.133 358.326C365.574 363.86 368.992 368.499 373.387 372.242C383.641 381.031 396.092 385.426 410.74 385.426C425.389 385.426 437.758 381.031 447.85 372.242C458.104 363.453 463.23 351.979 463.23 337.818L509.617 315.846H512.059ZM358.25 309.01L460.301 226.246C457.697 218.271 453.628 211.923 448.094 207.203C437.84 198.414 425.389 194.02 410.74 194.02C396.092 194.02 383.641 198.414 373.387 207.203C363.296 215.829 358.25 229.501 358.25 248.219V309.01Z" fill="url(#paint4_linear_1635_20)"/>
<path d="M577.977 337.818L624.363 315.846H626.805V335.377C626.805 353.606 632.094 367.441 642.674 376.881C652.765 385.833 664.972 390.309 679.295 390.309C695.896 390.309 708.836 385.019 718.113 374.44C727.879 363.372 732.762 351.328 732.762 338.307C732.762 324.309 727.553 313.242 717.137 305.104C708.185 298.105 695.49 294.606 679.051 294.606C650.079 294.606 627.212 288.258 610.447 275.563C595.636 264.495 588.23 247.324 588.23 224.049C588.23 201.425 598.566 182.708 619.236 167.897C635.35 156.341 655.369 150.563 679.295 150.563C702.244 150.563 722.182 157.724 739.109 172.047C752.13 183.277 760.187 196.298 763.279 211.109L716.893 233.082H714.451V226.002C714.451 217.538 712.01 210.296 707.127 204.273C699.314 194.182 688.165 189.137 673.68 189.137C662.124 189.137 652.684 192.799 645.359 200.123C638.198 207.285 634.617 215.26 634.617 224.049C634.617 234.466 639.012 242.766 647.801 248.951C652.684 252.369 663.1 254.078 679.051 254.078C712.091 254.078 736.912 261.647 753.514 276.783C771.58 293.222 780.613 314.625 780.613 340.992C780.613 362.151 771.255 382.333 752.537 401.539C734.796 419.768 710.382 428.883 679.295 428.883C651.137 428.883 627.456 421.07 608.25 405.445C588.068 389.007 577.977 366.464 577.977 337.818Z" fill="url(#paint5_linear_1635_20)"/>
<path d="M1049.17 145.68V331.227C1049.17 358.082 1039.08 381.438 1018.89 401.295C1000.01 419.687 976.333 428.883 947.85 428.883C919.692 428.883 896.01 419.687 876.805 401.295C856.622 381.764 846.531 358.408 846.531 331.227V167.652L892.918 145.68H895.359V331.227C895.359 349.944 900.405 363.697 910.496 372.486C920.75 381.113 933.201 385.426 947.85 385.426C962.498 385.426 974.868 381.113 984.959 372.486C995.213 363.697 1000.34 349.944 1000.34 331.227V167.652L1046.73 145.68H1049.17Z" fill="url(#paint6_linear_1635_20)"/>
<path d="M1122.41 433.766V248.219C1122.41 221.363 1132.5 198.007 1152.68 178.15C1171.56 159.759 1195.25 150.563 1223.73 150.563C1249.61 150.563 1271.99 160.003 1290.87 178.883C1294.45 182.464 1297.7 186.695 1300.63 191.578C1303.56 186.858 1306.82 182.708 1310.4 179.127C1330.74 160.084 1353.12 150.563 1377.54 150.563C1405.69 150.563 1429.38 159.759 1448.58 178.15C1468.76 197.682 1478.86 221.038 1478.86 248.219V411.793L1432.47 433.766H1430.03V248.219C1430.03 229.501 1424.9 215.829 1414.65 207.203C1404.56 198.414 1392.19 194.02 1377.54 194.02C1362.89 194.02 1350.44 198.414 1340.18 207.203C1330.09 215.829 1325.05 229.501 1325.05 248.219V411.793L1278.66 433.766H1276.22V248.219C1276.22 229.501 1271.09 215.829 1260.84 207.203C1250.75 198.414 1238.38 194.02 1223.73 194.02C1209.08 194.02 1196.63 198.414 1186.38 207.203C1176.28 215.829 1171.24 229.501 1171.24 248.219V411.793L1124.85 433.766H1122.41Z" fill="url(#paint7_linear_1635_20)"/>
<path d="M1754.73 315.846V331.227C1754.73 358.082 1744.64 381.438 1724.46 401.295C1705.58 419.687 1681.9 428.883 1653.42 428.883C1625.26 428.883 1601.58 419.687 1582.37 401.295C1562.19 381.764 1552.1 358.408 1552.1 331.227V248.219C1552.1 221.363 1562.19 198.007 1582.37 178.15C1601.25 159.759 1624.93 150.563 1653.42 150.563C1681.09 150.563 1704.77 159.759 1724.46 178.15C1744.64 197.031 1754.73 218.027 1754.73 241.139V241.627L1605.81 358.326C1608.25 363.86 1611.67 368.499 1616.06 372.242C1626.32 381.031 1638.77 385.426 1653.42 385.426C1668.06 385.426 1680.43 381.031 1690.53 372.242C1700.78 363.453 1705.91 351.979 1705.91 337.818L1752.29 315.846H1754.73ZM1600.93 309.01L1702.98 226.246C1700.37 218.271 1696.3 211.923 1690.77 207.203C1680.52 198.414 1668.06 194.02 1653.42 194.02C1638.77 194.02 1626.32 198.414 1616.06 207.203C1605.97 215.829 1600.93 229.501 1600.93 248.219V309.01Z" fill="url(#paint8_linear_1635_20)"/>
<path d="M2030.61 315.846V331.227C2030.61 358.082 2020.52 381.438 2000.34 401.295C1981.46 419.687 1957.78 428.883 1929.29 428.883C1901.14 428.883 1877.46 419.687 1858.25 401.295C1838.07 381.764 1827.98 358.408 1827.98 331.227V248.219C1827.98 221.363 1838.07 198.007 1858.25 178.15C1877.13 159.759 1900.81 150.563 1929.29 150.563C1956.96 150.563 1980.65 159.759 2000.34 178.15C2020.52 197.031 2030.61 218.027 2030.61 241.139V241.627L1881.69 358.326C1884.13 363.86 1887.55 368.499 1891.94 372.242C1902.2 381.031 1914.65 385.426 1929.29 385.426C1943.94 385.426 1956.31 381.031 1966.4 372.242C1976.66 363.453 1981.79 351.979 1981.79 337.818L2028.17 315.846H2030.61ZM1876.8 309.01L1978.86 226.246C1976.25 218.271 1972.18 211.923 1966.65 207.203C1956.39 198.414 1943.94 194.02 1929.29 194.02C1914.65 194.02 1902.2 198.414 1891.94 207.203C1881.85 215.829 1876.8 229.501 1876.8 248.219V309.01Z" fill="url(#paint9_linear_1635_20)"/>
<path d="M2144 386C2144 406.987 2126.99 424 2106 424C2085.01 424 2068 406.987 2068 386C2068 365.013 2085.01 348 2106 348C2126.99 348 2144 365.013 2144 386Z" fill="#707070"/>
<defs>
<linearGradient id="paint0_linear_1635_20" x1="239.788" y1="292.252" x2="751.293" y2="-881.631" gradientUnits="userSpaceOnUse">
<stop stop-color="#7F00E8"/>
<stop offset="1" stop-color="#DE00FF"/>
</linearGradient>
<linearGradient id="paint1_linear_1635_20" x1="2200.75" y1="421.393" x2="2128.3" y2="-229.662" gradientUnits="userSpaceOnUse">
<stop stop-color="#7F02D0"/>
<stop offset="1" stop-color="#153AFF"/>
</linearGradient>
<linearGradient id="paint2_linear_1635_20" x1="-3237.59" y1="-360.2" x2="-1973.97" y2="718.737" gradientUnits="userSpaceOnUse">
<stop stop-color="#FF52E2"/>
<stop offset="1" stop-color="#F200F2"/>
</linearGradient>
<linearGradient id="paint3_linear_1635_20" x1="48.107" y1="202.475" x2="2891.48" y2="1189.89" gradientUnits="userSpaceOnUse">
<stop stop-color="#5B1891"/>
<stop offset="1" stop-color="#AE0591"/>
</linearGradient>
<linearGradient id="paint4_linear_1635_20" x1="48.107" y1="202.475" x2="2891.48" y2="1189.89" gradientUnits="userSpaceOnUse">
<stop stop-color="#5B1891"/>
<stop offset="1" stop-color="#AE0591"/>
</linearGradient>
<linearGradient id="paint5_linear_1635_20" x1="48.107" y1="202.475" x2="2891.48" y2="1189.89" gradientUnits="userSpaceOnUse">
<stop stop-color="#5B1891"/>
<stop offset="1" stop-color="#AE0591"/>
</linearGradient>
<linearGradient id="paint6_linear_1635_20" x1="48.107" y1="202.475" x2="2891.48" y2="1189.89" gradientUnits="userSpaceOnUse">
<stop stop-color="#5B1891"/>
<stop offset="1" stop-color="#AE0591"/>
</linearGradient>
<linearGradient id="paint7_linear_1635_20" x1="48.107" y1="202.475" x2="2891.48" y2="1189.89" gradientUnits="userSpaceOnUse">
<stop stop-color="#5B1891"/>
<stop offset="1" stop-color="#AE0591"/>
</linearGradient>
<linearGradient id="paint8_linear_1635_20" x1="48.107" y1="202.475" x2="2891.48" y2="1189.89" gradientUnits="userSpaceOnUse">
<stop stop-color="#5B1891"/>
<stop offset="1" stop-color="#AE0591"/>
</linearGradient>
<linearGradient id="paint9_linear_1635_20" x1="48.107" y1="202.475" x2="2891.48" y2="1189.89" gradientUnits="userSpaceOnUse">
<stop stop-color="#5B1891"/>
<stop offset="1" stop-color="#AE0591"/>
</linearGradient>
</defs>
</svg>
